<svg xmlns="http://www.w3.org/2000/svg" style="display:none">
<symbol id="brand" viewBox="0 0 24 24">
  <g transform="scale(0.9230769)">
    <path d="M8 3v2m0 16v-8m0-6h12l-2 4 2 4H8V5Z"
      stroke="currentColor" stroke-width="1" stroke-linecap="round"
      stroke-linejoin="round" fill="currentColor"/>
  </g>
</symbol>
<symbol id="group" viewBox="0 0 24 24">
  <g transform="scale(0.9230769)">
    <path d="M8 10 12 3l4 7H8Zm2 7.5a3.5 3.5 0 1 1-7 0 3.5 3.5 0 0 1 7 0Zm6-3.5h7v7h-7z"
      stroke="currentColor" stroke-width="1" stroke-linecap="round"
      stroke-linejoin="round" fill="currentColor"/>
  </g>
</symbol>
<symbol id="color" viewBox="0 0 24 24">
  <g transform="translate(3.4285714 0) scale(0.8571429)">
    <path d="M5.3 11.214A6.791 6.791 0 0 0 10.792 22h2.416A6.791 6.791 0 0 0 18.7 11.214L12 2Zm5.946 8.036a5.24 5.24 0 0 1-4.631-2.779 1 1 0 1 1 1.766-.942 3.239 3.239 0 0 0 2.865 1.721 1 1 0 0 1 0 2Z"
      stroke="currentColor" stroke-width="1" fill="currentColor"/>
  </g>
</symbol>
<symbol id="base" viewBox="0 0 24 24">
  <g transform="scale(1)">
    <path stroke="currentColor" stroke-linecap="round" stroke-linejoin="round"
      stroke-width="2"
      d="M20 9.3V6a2 2 0 0 0-2-2h-3.3M20 9.3h-5.3m5.3 0v5.4M4 9.3V6a2 2 0 0 1 2-2h3.3M4 9.3h5.3m-5.3 0v5.4m10.7-5.4H9.3m5.4 0V4m0 5.3v5.4M9.3 9.3V4m0 5.3v5.4m10.7 0V18a2 2 0 0 1-2 2h-3.3M20 14.7h-5.3M4 14.7V18a2 2 0 0 0 2 2h3.3M4 14.7h5.3m5.4 0H9.3m5.4 0V20m-5.4-5.3V20m0-16h5.4M9.3 20h5.4"/>
  </g>
</symbol>
<symbol id="stickers" viewBox="0 0 24 24">
  <g transform="translate(3.2 0) scale(0.8)">
    <path d="M13 3.5v2.7c0 1.7 0 2.5.3 3.2a3 3 0 0 0 1.3 1.3C15.3 11 16.1 11 17.8 11h2.7m.5 2v2.2c0 1.7 0 2.5-.3 3.2a3 3 0 0 1-1.3 1.3C18.7 21 17.9 21 16.2 21H7.8c-1.7 0-2.5 0-3.2-.3a3 3 0 0 1-1.3-1.3C3 18.7 3 17.9 3 16.2V7.8c0-1.7 0-2.5.3-3.2a3 3 0 0 1 1.3-1.3C5.3 3 6.1 3 7.8 3h3.2c.7 0 1.1 0 1.4.1.3.1.6.2.9.4.3.2.6.4 1.1.9l5.2 5.2c.5.5.8.8 1 1.1.2.3.3.6.4.9.1.3.1.7.1 1.4Z"
      fill="currentColor"/>
  </g>
</symbol>
<symbol id="texture" viewBox="0 0 24 24">
  <g transform="scale(1)">
    <path fill-rule="evenodd"
      d="M10 8.1a2 2 0 1 0 0 4 2 2 0 0 0 0-4ZM18 3a1 1 0 0 0-1-1H3a1 1 0 0 0-1 1v14a1 1 0 0 0 1 1h14a1 1 0 0 0 1-1V3Zm2-1v16a2 2 0 0 1-2 2H2a2 2 0 0 1-2-2V2a2 2 0 0 1 2-2h16a2 2 0 0 1 2 2ZM6 8.1a2 2 0 1 0 0-4 2 2 0 0 0 0 4Zm0 4a2 2 0 1 0 0 4 2 2 0 0 0 0-4Zm8-8a2 2 0 1 0 0 4 2 2 0 0 0 0-4Zm2 10a2 2 0 1 1-4 0 2 2 0 0 1 4 0Z"
      stroke="currentColor"/>
  </g>
</symbol>
<symbol id="view360" viewBox="0 0 24 24">
  <g transform="scale(0.9)">
    <path d="M22.91 6.66v11.88L13 23.5V11.62l9.91-4.96zM12 9.88l9.88-4.94L12 0 2.12 4.94 12 9.88zm-1 1.74L1.09 6.66v11.88L11 23.5V11.62z"
      stroke="currentColor" fill="currentColor"/>
  </g>
</symbol>
<symbol id="shape" viewBox="0 0 24 24">
  <g transform="scale(0.24)">
    <path d="M33 11c-7 0-13 6-13 13 0 4 2 7 5 9L15 54a12 12 0 0 0-3 0C6 54 0 60 0 67c0 6 6 12 13 12 5 0 9-3 11-8l51 8c1 6 7 10 13 10s12-5 12-12a4 4 0 0 0 0-1c0-7-6-12-12-12h-1l-7-21c4-2 6-6 6-10a4 4 0 0 0 0-1c0-7-6-12-12-12s-10 3-12 7l-17-4c0-7-6-12-12-12zm0 7c3 0 5 2 5 5 0 4-2 6-6 6-3 0-5-2-5-5 0-4 2-6 5-6zm41 9c3 0 5 2 5 5 0 4-2 6-6 6-3 0-5-2-5-6 0-3 2-5 6-5zm-31 3 18 4c1 6 6 11 13 11l6 21a13 13 0 0 0-4 6l-51-7a13 13 0 0 0-4-8l10-21h2c4 0 8-3 10-6zM13 61c3 0 5 2 5 6s-2 5-5 5c-4 0-6-2-6-5 0-4 2-6 6-6zm75 10c3 0 5 2 5 6s-2 5-6 5c-3 0-5-2-5-5 0-4 2-6 6-6z"
      fill="currentColor"/>
  </g>
</symbol>
<symbol id="tags" viewBox="0 0 24 24">
  <g transform="translate(3.6923 1.8462) scale(0.9230769)">
    <path fill-rule="evenodd"
      d="M3.978 5.02a1.044 1.044 0 1 1 2.087 0 1.044 1.044 0 0 1-2.087 0Zm7.297 12.156L2.24 8.141a.521.521 0 0 1-.153-.37V3.13c0-.577.467-1.045 1.044-1.045h4.64c.14 0 .272.056.37.154l9.035 9.035a1.044 1.044 0 0 1 0 1.476l-4.426 4.426a1.044 1.044 0 0 1-1.475 0Zm4.659-10.094L9.158.305A1.046 1.046 0 0 0 8.421 0H2.087A2.087 2.087 0 0 0 0 2.085V8.42c0 .277.11.542.306.738l10.231 10.23a2.086 2.086 0 0 0 2.95 0l5.902-5.9a2.086 2.086 0 0 0 0-2.951l-3.455-3.455Z"/>
  </g>
</symbol>
<symbol id="default" viewBox="0 0 24 24">
  <g transform="scale(1)">
    <path d="M12.414 5H21a1 1 0 0 1 1 1v14a1 1 0 0 1-1 1H3a1 1 0 0 1-1-1V4a1 1 0 0 1 1-1h7.414l2 2zM4 5v14h16V7h-8.414l-2-2H4zm7 11h2v2h-2v-2zm-2.433-5.187A3.501 3.501 0 1 1 12 15h-1v-2h1a1.5 1.5 0 1 0-1.471-1.794l-1.962-.393z"/>
  </g>
</symbol>
<symbol id="view-mode" viewBox="0 0 24 24">
  <g transform="scale(0.75)">
    <rect x="4" y="26" width="24" height="2"/>
    <rect x="4" y="19" width="24" height="2"/>
    <path d="M26 6v6H6V6h20m0-2H6a2 2 0 0 0-2 2v6a2 2 0 0 0 2 2h20a2 2 0 0 0 2-2V6a2 2 0 0 0-2-2Z"/>
  </g>
</symbol>
<symbol id="toggle-details" viewBox="0 0 24 24">
  <g transform="scale(0.75)">
    <path d="M26 10v12a2 2 0 0 1-2 2H8a2 2 0 0 1-2-2V10a2 2 0 0 1 2-2h16a2 2 0 0 1 2 2Zm-18 12h16V10H8Z"/>
    <path d="M24 28v4h-2v-4H10v4H8v-4a2 2 0 0 1 2-2h12a2 2 0 0 1 2 2Z"/>
    <path d="M24 0v4a2 2 0 0 1-2 2H10A2 2 0 0 1 8 4V0h2v4h12V0Z"/>
  </g>
</symbol>
<symbol id="compact-grid" viewBox="0 0 24 24">
  <g transform="scale(0.75)">
    <path fill="currentColor" stroke="currentColor" stroke-linecap="round" stroke-width="1.5"
      d="M30 0H2L0 2v28l2 2h28l2-2V2l-2-2zM1 11h9v10H1V11zm10 0h10v10H11V11zm11 0h9v10h-9V11zm8-10 1 1v8h-9V1h8zm-9 0v9H11V1h10zM1 2l1-1h8v9H1V2zm1 29-1-1v-8h9v9H2zm9 0v-9h10v9H11zm20-1-1 1h-8v-9h9v8z"/>
  </g>
</symbol>
<symbol id="filters" viewBox="0 0 24 24">
  <g transform="scale(1)">
    <path fill="none" stroke="currentColor" stroke-linecap="round" stroke-width="1.5"
      d="M19 4v6m0 0a2 2 0 1 0 0 4m0-4a2 2 0 1 1 0 4m0 0v6M12 4v12m0 0a2 2 0 1 0 0 4 2 2 0 0 0 0-4ZM5 8v12M5 8a2 2 0 1 0 0-4 2 2 0 0 0 0 4Z"/>
  </g>
</symbol>
<symbol id="date" viewBox="0 0 24 24">
  <g transform="translate(1.0169 0) scale(0.2033898)">
    <g fill="none" stroke="currentColor" stroke-linecap="round" stroke-miterlimit="10" stroke-width="4">
      <path d="M77 13H11a9 9 0 0 0-9 9v66a9 9 0 0 0 9 8h66a9 9 0 0 0 9-8V22a9 9 0 0 0-9-9Z"/>
      <path d="M20 42h21"/>
      <path d="M20 61h46"/>
      <path d="M31 2v20"/>
      <path d="M57 2v20"/>
    </g>
  </g>
</symbol>
<symbol id="collapse" viewBox="0 0 24 24">
  <g transform="scale(0.6667)">
    <path d="M29 19a1 1 0 0 1-1 0L18 9 8 19a1 1 0 0 1-2-1L18 6l12 12a1 1 0 0 1-1 1Z" class="clr-i-outline clr-i-outline-path-1"/>
    <path d="M29 30a1 1 0 0 1-1 0L18 20 8 30a1 1 0 0 1-2-1l12-12 12 12a1 1 0 0 1-1 1Z" class="clr-i-outline clr-i-outline-path-2"/>
    <path fill="none" d="M0 0h36v36H0z"/>
  </g>
</symbol>
</svg>
